<?xml version="1.0" encoding="utf-8"?>
<!-- Generator: Adobe Illustrator 26.0.3, SVG Export Plug-In . SVG Version: 6.00 Build 0)  -->
<svg version="1.1" id="Layer_1" xmlns="http://www.w3.org/2000/svg" xmlns:xlink="http://www.w3.org/1999/xlink" x="0px" y="0px"
	 viewBox="0 0 602.8 635" style="enable-background:new 0 0 602.8 635;" xml:space="preserve">
<style type="text/css">
	.st0{fill:#FFFFFF;}
</style>
<g>
	<path class="st0" d="M0,0v635h602.8V0H0z M63,322.6c61.1,10.8,83.6,44.3,86.9,74.6H63V322.6z M87.1,571.2
		c-7.3,1.8-15.4,3.3-24.1,4.4v-4.4V413.7c80.9,16.3,94.8,47,94.8,79.7C157.8,526.7,139.9,558,87.1,571.2z M357.4,571.2
		c-2.3-8.9-50.4-88.9-52.6-95.6L273,505.1v66.1H168.9V225.1H273v196.2c21.8-27.7,54.7-63.8,80-95.7h119.1l-93.7,92.1
		c11.4,20.2,92.8,135.2,102.5,153.5L357.4,571.2L357.4,571.2z"/>
</g>
</svg>
