<svg version="1.1" id="Layer_1" xmlns="http://www.w3.org/2000/svg" xmlns:xlink="http://www.w3.org/1999/xlink" x="0px" y="0px"
	 viewBox="0 0 602.8 634.97" style="enable-background:new 0 0 602.8 634.97;" xml:space="preserve">
<g>
	<path d="M0,0v634.97h602.8V0H0z M62.99,322.58c61.14,10.8,83.55,44.32,86.91,74.63H62.99V322.58z M87.12,571.15
		c-7.35,1.84-15.38,3.32-24.13,4.41v-4.41V413.69c80.86,16.31,94.85,46.96,94.85,79.74C157.84,526.69,139.85,557.97,87.12,571.15z
		 M357.37,571.15c-2.3-8.88-50.43-88.85-52.57-95.6l-31.77,29.52v66.07H168.93V225.09h104.11v196.16
		c21.75-27.71,54.73-63.82,79.97-95.67h119.15l-93.66,92.09c11.35,20.24,92.78,135.23,102.49,153.49H357.37z"/>
</g>
</svg>
